<svg width="12" height="16" viewBox="0 0 12 16" fill="none" xmlns="http://www.w3.org/2000/svg">
<path d="M6.08 15.3C5.28 15.3 4.56 15.14 3.92 14.82C3.28 14.4867 2.73333 14.0067 2.28 13.38C1.82667 12.7533 1.48 12 1.24 11.12C1.01333 10.24 0.9 9.25333 0.9 8.16C0.9 7.02667 1.02 6.01333 1.26 5.12C1.51333 4.22667 1.87333 3.46667 2.34 2.84C2.80667 2.21333 3.36667 1.73333 4.02 1.4C4.67333 1.06667 5.4 0.899999 6.2 0.899999C7.01333 0.899999 7.73333 1.06667 8.36 1.4C9 1.73333 9.54 2.21333 9.98 2.84C10.42 3.46667 10.7533 4.22 10.98 5.1C11.22 5.96667 11.34 6.94667 11.34 8.04C11.34 9.16 11.22 10.1667 10.98 11.06C10.74 11.9533 10.3867 12.72 9.92 13.36C9.46667 13.9867 8.91333 14.4667 8.26 14.8C7.62 15.1333 6.89333 15.3 6.08 15.3ZM6.12 13.14C7.01333 13.14 7.70667 12.7067 8.2 11.84C8.70667 10.96 8.96 9.71333 8.96 8.1C8.96 6.48667 8.70667 5.24667 8.2 4.38C7.70667 3.5 7.01333 3.06 6.12 3.06C5.22667 3.06 4.52667 3.5 4.02 4.38C3.52667 5.24667 3.28 6.48667 3.28 8.1C3.28 9.71333 3.52667 10.96 4.02 11.84C4.52667 12.7067 5.22667 13.14 6.12 13.14Z" fill="white"/>
</svg>
