<svg width="1139" height="259" viewBox="0 0 1139 259" fill="none" xmlns="http://www.w3.org/2000/svg">
<path d="M1 257L139.363 149.172C143.199 146.183 148.63 146.387 152.231 149.656L203.268 195.982C207.483 199.808 214.037 199.349 217.677 194.972L291.676 106.008C295.878 100.956 303.726 101.261 307.524 106.622L327.936 135.439C331.237 140.099 337.764 141.053 342.261 137.532L453.695 50.2851C458.564 46.473 465.691 47.9494 468.645 53.3819L542.415 189.05C545.931 195.516 554.991 196.097 559.304 190.132L692.414 6.02503C697.217 -0.618961 707.536 1.02297 710.04 8.82983L720.313 40.8568C720.765 42.268 721.526 43.5608 722.539 44.642L757.112 81.5195C761.601 86.3081 769.409 85.5463 772.887 79.9801L782.978 63.8348C787.732 56.2294 799.32 58.2433 801.229 67.0065L812.898 120.577C814.789 129.258 826.217 131.346 831.056 123.894L905.283 9.58485C910.072 2.20883 921.365 4.16263 923.399 12.719L937.152 70.5994C939.097 78.7847 949.665 81.056 954.802 74.3926L971.185 53.1384C975.155 47.9875 982.909 47.9374 986.946 53.0365L1016.14 89.9103C1016.71 90.6333 1017.18 91.432 1017.53 92.2836L1030.98 124.686C1034.2 132.447 1044.98 133.015 1049 125.635L1087.22 55.4437C1090.53 49.3757 1098.84 48.4073 1103.45 53.5537L1137 91" stroke="#00F1FF" stroke-width="3"/>
</svg>
