<svg width="1136" height="246" viewBox="0 0 1136 246" fill="none" xmlns="http://www.w3.org/2000/svg">
<path d="M1 203L115.889 100.155C120.599 95.94 127.988 97.0958 131.185 102.548L211.131 238.876C215.049 245.557 224.747 245.44 228.502 238.667L327.369 60.3686C331.353 53.1846 341.819 53.6017 345.218 61.08L376.325 129.515C379.13 135.687 387.134 137.337 392.152 132.779L481.13 51.9642C486.065 47.482 493.921 48.9922 496.842 54.9846L561.909 188.455C565.167 195.138 574.318 196.055 578.838 190.153L647.501 100.486C651.018 95.8936 657.687 95.234 662.035 99.0486L702.597 134.629C707.079 138.56 713.984 137.722 717.394 132.831L805.668 6.24958C810.362 -0.480808 820.716 0.994172 823.344 8.76742L882.588 184.031C885.228 191.841 895.655 193.281 900.312 186.478L956.219 104.825C960.33 98.8209 969.272 99.0772 973.032 105.306L1023.67 189.201C1027.5 195.552 1036.68 195.665 1040.66 189.409L1134 43" stroke="#FFB8C6" stroke-width="3"/>
</svg>
